<svg width="24" height="24" viewBox="0 0 24 24" fill="none" xmlns="http://www.w3.org/2000/svg">
<path d="M20 5C20 3.34315 18.6569 2 17 2H5C3.34315 2 2 3.34315 2 5V17C2 18.6569 3.34315 20 5 20L11.9896 19.9941C12.3763 19.9937 12.6896 19.6802 12.6896 19.2935C12.6896 18.907 12.3761 18.5937 11.9896 18.5941L5 18.6L4.85437 18.5935C4.03896 18.5199 3.4 17.8346 3.4 17V5L3.40654 4.85437C3.48011 4.03896 4.16544 3.4 5 3.4H17L17.1456 3.40654C17.961 3.48011 18.6 4.16544 18.6 5V8V9.8C18.6 10.1866 18.9134 10.5 19.3 10.5C19.6866 10.5 20 10.1866 20 9.8V8V5Z" fill="#712bba"/>
<path fill-rule="evenodd" clip-rule="evenodd" d="M6.6 5C5.71634 5 5 5.71634 5 6.6C5 7.48366 5.71634 8.2 6.6 8.2H10.5C11.3837 8.2 12.1 7.48366 12.1 6.6C12.1 5.71634 11.3837 5 10.5 5H6.6ZM6.2 6.6C6.2 6.37909 6.37909 6.2 6.6 6.2H10.5C10.7209 6.2 10.9 6.37909 10.9 6.6C10.9 6.82091 10.7209 7 10.5 7H6.6C6.37909 7 6.2 6.82091 6.2 6.6ZM7 11C7 10.1164 7.71634 9.40002 8.6 9.40002H12.5C13.3837 9.40002 14.1 10.1164 14.1 11C14.1 11.8837 13.3837 12.6 12.5 12.6H8.6C7.71634 12.6 7 11.8837 7 11ZM8.6 10.6C8.37909 10.6 8.2 10.7791 8.2 11C8.2 11.2209 8.37909 11.4 8.6 11.4H12.5C12.7209 11.4 12.9 11.2209 12.9 11C12.9 10.7791 12.7209 10.6 12.5 10.6H8.6ZM5 15.4C5 14.5164 5.71634 13.8 6.6 13.8H10C10 13.8 10.5 13.8 10.5 14.4C10.5 15 10 15 10 15H6.6C6.37909 15 6.2 15.1791 6.2 15.4C6.2 15.621 6.37909 15.8 6.6 15.8H11C11 15.8 11.5 15.8 11.5 16.4C11.5 17 11 17 11 17H6.6C5.71634 17 5 16.2837 5 15.4Z" fill="#712bba"/>
<path fill-rule="evenodd" clip-rule="evenodd" d="M17.8754 11.3803L19.0468 14.1367L22.032 14.4001C22.5804 14.4479 22.8017 15.1294 22.3875 15.4916L20.127 17.4589L20.799 20.3793C20.9179 20.893 20.3901 21.3009 19.9304 21.0857L19.8708 21.0541L17.3009 19.5116L14.7308 21.0549C14.2785 21.324 13.7281 20.949 13.792 20.4462L13.8038 20.3799L14.4742 17.4583L12.2142 15.491C11.8186 15.1452 12.0039 14.5066 12.5004 14.4099L12.57 14.4001L15.5545 14.1373L16.7276 11.3789C16.9326 10.8987 17.5905 10.8747 17.8396 11.3081L17.8754 11.3803ZM18.3099 14.6073L17.301 12.2343L16.292 14.6084C16.2018 14.8191 16.0024 14.964 15.7738 14.9841L13.2054 15.2102L15.1508 16.9034C15.3057 17.0387 15.383 17.2403 15.3609 17.4387L15.3478 17.5128L14.7706 20.0243L16.9801 18.6988C17.1527 18.5949 17.3639 18.5819 17.5458 18.6596L17.6217 18.6985L19.8319 20.0243L19.2548 17.5138C19.2085 17.3142 19.2635 17.1068 19.3984 16.9565L19.4527 16.9029L21.3959 15.2102L18.8297 14.9841C18.6259 14.9664 18.4455 14.85 18.3441 14.6754L18.3099 14.6073Z" fill="#712bba" stroke="#712bba" stroke-width="0.4"/>
</svg>
